# xmcd
#
# Track frame offsets:
#	150
#	15762
#	29552
#	42912
#	63440
#	80787
#	92382
#	102950
#	117187
#	140340
#	153675
#	173570
#	187912
#	202962
#	219027
#
# Disc length: 3101 seconds
#
# Revision: 0
# Processed by: cddbd v1.5.1PL0 Copyright (c) Steve Scherf et al.
# Submitted via: dBpowerAMP V4.0
#
DISCID=b70c1b0f
DTITLE=Various Artist - Country hits
DYEAR=1900
DGENRE=
TTITLE0=Rankarna/Peta in en pinne i brasan
TTITLE1=Hasse Andersson/Skomakare Anton
TTITLE2=Ann-Louise Hansson/ I Aínt got the time to sitt here by the telephone
TTITLE3=Hasse Andersson/Septemberkväll
TTITLE4=Kikki/ Comment ca va
TTITLE5=Rankarna/ Only one you
TTITLE6=Tone Wattum/ Falling in to love
TTITLE7=Wendel Adkins/I´dont want to hear it anymore
TTITLE8=Hasse Andersson/Änglahund
TTITLE9=Dough Sahm/Meet me in stockholm
TTITLE10=Kikki/Ensamma dagar
TTITLE11=Alf Robertsson/Liljor
TTITLE12=Country road/I´dont think she is in love anymore
TTITLE13=Rankarna/Många mil
TTITLE14=Tanja/You got to sing it nice and loud for me baby
EXTD=
EXTT0=
EXTT1=
EXTT2=
EXTT3=
EXTT4=
EXTT5=
EXTT6=
EXTT7=
EXTT8=
EXTT9=
EXTT10=
EXTT11=
EXTT12=
EXTT13=
EXTT14=
PLAYORDER=
